<svg width="98" height="15" viewBox="0 0 98 15" fill="none" xmlns="http://www.w3.org/2000/svg">
<path d="M10.0484 0.5H0.254364C0.254364 2.02677 1.49205 3.26446 3.01882 3.26446H6.1782L0.254364 11.7948V14.3618H7.28398C8.81075 14.3618 10.0484 13.1241 10.0484 11.5973H4.08511L10.0484 3.067V0.5Z" fill="#111029"/>
<path d="M19.1958 8.77363C19.1958 12.6044 21.7036 14.5 24.9222 14.5C28.121 14.5 30.8065 12.6044 30.8065 8.77363V0.5C28.9417 0.5 27.4299 2.01175 27.4299 3.87659V8.79337C27.4299 10.4323 26.5809 11.3801 24.9814 11.3801C23.382 11.3801 22.5724 10.4323 22.5724 8.79337V3.87659C22.5724 2.01175 21.0606 0.5 19.1958 0.5V8.77363Z" fill="#111029"/>
<path d="M40.1785 14.3618C42.0433 14.3618 43.5551 12.85 43.5551 10.9852V6.02891L46.675 14.3618H49.3999L52.5001 6.04866V10.9852C52.5001 12.85 54.0118 14.3618 55.8767 14.3618V0.5H51.9077L48.0572 10.0966L44.1672 0.5H40.1785V14.3618Z" fill="#111029"/>
<path d="M73.9348 11.9133C74.4305 13.3769 75.8039 14.3618 77.3493 14.3618H78.3382L73.3226 0.5H69.4129L64.3974 14.3618H65.3468C66.8921 14.3618 68.2655 13.3769 68.7613 11.9133H73.9348ZM73.0659 9.30677H69.6499L71.348 4.23202L73.0659 9.30677Z" fill="#111029"/>
<path d="M94.1913 5.00212C94.1913 6.08815 93.5989 6.73977 92.3352 6.73977H90.2421V3.30395H92.3352C93.5989 3.30395 94.1913 3.97532 94.1913 5.00212ZM86.8655 0.5V14.3618H90.2421V9.12906H91.0517L92.0956 11.0238C93.23 13.0829 95.3948 14.3618 97.7456 14.3618L94.5468 8.87235C96.6793 8.24048 97.6271 6.60155 97.6271 4.86389C97.6271 2.45487 95.929 0.5 92.5327 0.5H86.8655Z" fill="#111029"/>
</svg>
